<svg width="51" height="52" viewBox="0 0 51 52" fill="none" xmlns="http://www.w3.org/2000/svg">
<path d="M7.4805 30.239H6.063V29.06H10.239V30.239H8.826V35H7.4805V30.239ZM11.3342 33.443C11.3432 33.575 11.3852 33.692 11.4602 33.794C11.5352 33.896 11.6387 33.977 11.7707 34.037C11.9057 34.094 12.0647 34.1225 12.2477 34.1225C12.4217 34.1225 12.5777 34.1045 12.7157 34.0685C12.8567 34.0325 12.9782 33.9875 13.0802 33.9335C13.1852 33.8795 13.2662 33.824 13.3232 33.767L13.8542 34.613C13.7792 34.694 13.6727 34.7735 13.5347 34.8515C13.3997 34.9265 13.2212 34.988 12.9992 35.036C12.7772 35.084 12.4967 35.108 12.1577 35.108C11.7497 35.108 11.3867 35.0315 11.0687 34.8785C10.7507 34.7255 10.5002 34.5005 10.3172 34.2035C10.1342 33.9065 10.0427 33.5435 10.0427 33.1145C10.0427 32.7545 10.1207 32.4305 10.2767 32.1425C10.4357 31.8515 10.6652 31.622 10.9652 31.454C11.2652 31.283 11.6267 31.1975 12.0497 31.1975C12.4517 31.1975 12.7997 31.271 13.0937 31.418C13.3907 31.565 13.6187 31.784 13.7777 32.075C13.9397 32.363 14.0207 32.723 14.0207 33.155C14.0207 33.179 14.0192 33.227 14.0162 33.299C14.0162 33.371 14.0132 33.419 14.0072 33.443H11.3342ZM12.7337 32.7275C12.7307 32.6315 12.7052 32.537 12.6572 32.444C12.6092 32.348 12.5372 32.27 12.4412 32.21C12.3452 32.147 12.2222 32.1155 12.0722 32.1155C11.9222 32.1155 11.7947 32.1455 11.6897 32.2055C11.5877 32.2625 11.5097 32.3375 11.4557 32.4305C11.4017 32.5235 11.3717 32.6225 11.3657 32.7275H12.7337ZM16.7301 34.0325C16.9011 34.0325 17.0421 34.004 17.1531 33.947C17.2641 33.887 17.3391 33.839 17.3781 33.803L18.0036 34.73C17.9556 34.769 17.8731 34.82 17.7561 34.883C17.6391 34.943 17.4921 34.9955 17.3151 35.0405C17.1411 35.0855 16.9416 35.108 16.7166 35.108C16.2936 35.108 15.9216 35.0285 15.6006 34.8695C15.2796 34.7075 15.0291 34.4795 14.8491 34.1855C14.6721 33.8915 14.5836 33.5465 14.5836 33.1505C14.5836 32.7515 14.6721 32.4065 14.8491 32.1155C15.0291 31.8245 15.2796 31.5995 15.6006 31.4405C15.9216 31.2785 16.2936 31.1975 16.7166 31.1975C16.9386 31.1975 17.1366 31.2215 17.3106 31.2695C17.4876 31.3145 17.6361 31.367 17.7561 31.427C17.8761 31.484 17.9601 31.5335 18.0081 31.5755L17.3691 32.5115C17.3481 32.4905 17.3091 32.4605 17.2521 32.4215C17.1981 32.3825 17.1276 32.348 17.0406 32.318C16.9536 32.288 16.8501 32.273 16.7301 32.273C16.5831 32.273 16.4451 32.3105 16.3161 32.3855C16.1901 32.4605 16.0881 32.564 16.0101 32.696C15.9321 32.828 15.8931 32.9795 15.8931 33.1505C15.8931 33.3215 15.9321 33.4745 16.0101 33.6095C16.0881 33.7415 16.1901 33.845 16.3161 33.92C16.4451 33.995 16.5831 34.0325 16.7301 34.0325ZM21.1336 31.1975C21.3916 31.1975 21.6436 31.25 21.8896 31.355C22.1356 31.46 22.3381 31.6265 22.4971 31.8545C22.6561 32.0795 22.7356 32.3765 22.7356 32.7455V35H21.3676V32.9705C21.3676 32.7065 21.3076 32.5085 21.1876 32.3765C21.0706 32.2415 20.9101 32.174 20.7061 32.174C20.5711 32.174 20.4421 32.21 20.3191 32.282C20.1961 32.351 20.0956 32.45 20.0176 32.579C19.9426 32.705 19.9051 32.8505 19.9051 33.0155V35H18.5326V28.808H19.9051V31.85C19.9381 31.751 20.0116 31.652 20.1256 31.553C20.2426 31.451 20.3881 31.367 20.5621 31.301C20.7391 31.232 20.9296 31.1975 21.1336 31.1975ZM6.4095 39.06H8.448C8.787 39.06 9.1005 39.1065 9.3885 39.1995C9.6795 39.2925 9.9135 39.4455 10.0905 39.6585C10.2705 39.8685 10.3605 40.1535 10.3605 40.5135C10.3605 40.7505 10.3155 40.962 10.2255 41.148C10.1385 41.334 10.0215 41.487 9.8745 41.607C9.7305 41.724 9.573 41.802 9.402 41.841C9.552 41.859 9.6975 41.9025 9.8385 41.9715C9.9825 42.0375 10.1115 42.1305 10.2255 42.2505C10.3425 42.3675 10.434 42.5145 10.5 42.6915C10.569 42.8655 10.6035 43.0725 10.6035 43.3125C10.6035 43.6455 10.5285 43.9395 10.3785 44.1945C10.2315 44.4465 10.0155 44.6445 9.7305 44.7885C9.4485 44.9295 9.102 45 8.691 45H6.4095V39.06ZM7.755 43.9245H8.367C8.559 43.9245 8.715 43.896 8.835 43.839C8.958 43.779 9.048 43.695 9.105 43.587C9.162 43.476 9.1905 43.344 9.1905 43.191C9.1905 42.951 9.1155 42.7755 8.9655 42.6645C8.8185 42.5505 8.6115 42.4935 8.3445 42.4935H7.755V43.9245ZM7.755 41.4405H8.2995C8.4585 41.4405 8.5905 41.412 8.6955 41.355C8.8035 41.298 8.8845 41.2185 8.9385 41.1165C8.9955 41.0115 9.024 40.8915 9.024 40.7565C9.024 40.5135 8.955 40.35 8.817 40.266C8.679 40.179 8.49 40.1355 8.25 40.1355H7.755V41.4405ZM11.4503 45V41.3055H12.8183V45H11.4503ZM12.1523 40.545C11.9363 40.545 11.7533 40.47 11.6033 40.32C11.4533 40.167 11.3783 39.9855 11.3783 39.7755C11.3783 39.5655 11.4533 39.384 11.6033 39.231C11.7563 39.075 11.9393 38.997 12.1523 38.997C12.2933 38.997 12.4223 39.033 12.5393 39.105C12.6563 39.174 12.7508 39.267 12.8228 39.384C12.8948 39.501 12.9308 39.6315 12.9308 39.7755C12.9308 39.9855 12.8543 40.167 12.7013 40.32C12.5483 40.47 12.3653 40.545 12.1523 40.545ZM13.7383 45V38.808H15.1063V41.8455C15.1333 41.7615 15.2023 41.67 15.3133 41.571C15.4273 41.469 15.5758 41.382 15.7588 41.31C15.9448 41.235 16.1548 41.1975 16.3888 41.1975C16.7488 41.1975 17.0608 41.286 17.3248 41.463C17.5888 41.64 17.7928 41.877 17.9368 42.174C18.0808 42.468 18.1528 42.795 18.1528 43.155C18.1528 43.515 18.0808 43.8435 17.9368 44.1405C17.7928 44.4345 17.5888 44.67 17.3248 44.847C17.0608 45.021 16.7488 45.108 16.3888 45.108C16.1908 45.108 16.0033 45.072 15.8263 45C15.6523 44.931 15.5008 44.8425 15.3718 44.7345C15.2458 44.6235 15.1528 44.5125 15.0928 44.4015V45H13.7383ZM16.8118 43.155C16.8118 42.987 16.7743 42.837 16.6993 42.705C16.6273 42.57 16.5268 42.465 16.3978 42.39C16.2718 42.312 16.1293 42.273 15.9703 42.273C15.8053 42.273 15.6568 42.312 15.5248 42.39C15.3958 42.465 15.2938 42.57 15.2188 42.705C15.1438 42.837 15.1063 42.987 15.1063 43.155C15.1063 43.323 15.1438 43.4745 15.2188 43.6095C15.2938 43.7415 15.3958 43.845 15.5248 43.92C15.6568 43.995 15.8053 44.0325 15.9703 44.0325C16.1293 44.0325 16.2718 43.995 16.3978 43.92C16.5268 43.845 16.6273 43.7415 16.6993 43.6095C16.7743 43.4745 16.8118 43.323 16.8118 43.155ZM20.1562 45H18.7837V38.808H20.1562V45ZM22.1272 43.443C22.1362 43.575 22.1782 43.692 22.2532 43.794C22.3282 43.896 22.4317 43.977 22.5637 44.037C22.6987 44.094 22.8577 44.1225 23.0407 44.1225C23.2147 44.1225 23.3707 44.1045 23.5087 44.0685C23.6497 44.0325 23.7712 43.9875 23.8732 43.9335C23.9782 43.8795 24.0592 43.824 24.1162 43.767L24.6472 44.613C24.5722 44.694 24.4657 44.7735 24.3277 44.8515C24.1927 44.9265 24.0142 44.988 23.7922 45.036C23.5702 45.084 23.2897 45.108 22.9507 45.108C22.5427 45.108 22.1797 45.0315 21.8617 44.8785C21.5437 44.7255 21.2932 44.5005 21.1102 44.2035C20.9272 43.9065 20.8357 43.5435 20.8357 43.1145C20.8357 42.7545 20.9137 42.4305 21.0697 42.1425C21.2287 41.8515 21.4582 41.622 21.7582 41.454C22.0582 41.283 22.4197 41.1975 22.8427 41.1975C23.2447 41.1975 23.5927 41.271 23.8867 41.418C24.1837 41.565 24.4117 41.784 24.5707 42.075C24.7327 42.363 24.8137 42.723 24.8137 43.155C24.8137 43.179 24.8122 43.227 24.8092 43.299C24.8092 43.371 24.8062 43.419 24.8002 43.443H22.1272ZM23.5267 42.7275C23.5237 42.6315 23.4982 42.537 23.4502 42.444C23.4022 42.348 23.3302 42.27 23.2342 42.21C23.1382 42.147 23.0152 42.1155 22.8652 42.1155C22.7152 42.1155 22.5877 42.1455 22.4827 42.2055C22.3807 42.2625 22.3027 42.3375 22.2487 42.4305C22.1947 42.5235 22.1647 42.6225 22.1587 42.7275H23.5267Z" fill="white"/>
<rect x="1" y="1" width="49" height="50" stroke="white" stroke-width="2"/>
</svg>
