<svg width="513" height="85" viewBox="0 0 513 85" fill="none" xmlns="http://www.w3.org/2000/svg">
<path d="M19.74 19.52H0.84V3.8H56.52V19.52H37.68V83H19.74V19.52ZM71.1225 62.24C71.2425 64 71.8025 65.56 72.8025 66.92C73.8025 68.28 75.1825 69.36 76.9425 70.16C78.7425 70.92 80.8625 71.3 83.3025 71.3C85.6225 71.3 87.7025 71.06 89.5425 70.58C91.4225 70.1 93.0425 69.5 94.4025 68.78C95.8025 68.06 96.8825 67.32 97.6425 66.56L104.723 77.84C103.723 78.92 102.303 79.98 100.463 81.02C98.6625 82.02 96.2825 82.84 93.3225 83.48C90.3625 84.12 86.6225 84.44 82.1025 84.44C76.6625 84.44 71.8225 83.42 67.5825 81.38C63.3425 79.34 60.0025 76.34 57.5625 72.38C55.1225 68.42 53.9025 63.58 53.9025 57.86C53.9025 53.06 54.9425 48.74 57.0225 44.9C59.1425 41.02 62.2025 37.96 66.2025 35.72C70.2025 33.44 75.0225 32.3 80.6625 32.3C86.0225 32.3 90.6625 33.28 94.5825 35.24C98.5425 37.2 101.583 40.12 103.703 44C105.863 47.84 106.943 52.64 106.943 58.4C106.943 58.72 106.923 59.36 106.883 60.32C106.883 61.28 106.843 61.92 106.763 62.24H71.1225ZM89.7825 52.7C89.7425 51.42 89.4025 50.16 88.7625 48.92C88.1225 47.64 87.1625 46.6 85.8825 45.8C84.6025 44.96 82.9625 44.54 80.9625 44.54C78.9625 44.54 77.2625 44.94 75.8625 45.74C74.5025 46.5 73.4625 47.5 72.7425 48.74C72.0225 49.98 71.6225 51.3 71.5425 52.7H89.7825ZM143.068 70.1C145.348 70.1 147.228 69.72 148.708 68.96C150.188 68.16 151.188 67.52 151.708 67.04L160.048 79.4C159.408 79.92 158.308 80.6 156.748 81.44C155.188 82.24 153.228 82.94 150.868 83.54C148.548 84.14 145.888 84.44 142.888 84.44C137.248 84.44 132.288 83.38 128.008 81.26C123.728 79.1 120.388 76.06 117.988 72.14C115.628 68.22 114.448 63.62 114.448 58.34C114.448 53.02 115.628 48.42 117.988 44.54C120.388 40.66 123.728 37.66 128.008 35.54C132.288 33.38 137.248 32.3 142.888 32.3C145.848 32.3 148.488 32.62 150.808 33.26C153.168 33.86 155.148 34.56 156.748 35.36C158.348 36.12 159.468 36.78 160.108 37.34L151.588 49.82C151.308 49.54 150.788 49.14 150.028 48.62C149.308 48.1 148.368 47.64 147.208 47.24C146.048 46.84 144.668 46.64 143.068 46.64C141.108 46.64 139.268 47.14 137.548 48.14C135.868 49.14 134.508 50.52 133.468 52.28C132.428 54.04 131.908 56.06 131.908 58.34C131.908 60.62 132.428 62.66 133.468 64.46C134.508 66.22 135.868 67.6 137.548 68.6C139.268 69.6 141.108 70.1 143.068 70.1ZM201.782 32.3C205.222 32.3 208.582 33 211.862 34.4C215.142 35.8 217.842 38.02 219.962 41.06C222.082 44.06 223.142 48.02 223.142 52.94V83H204.902V55.94C204.902 52.42 204.102 49.78 202.502 48.02C200.942 46.22 198.802 45.32 196.082 45.32C194.282 45.32 192.562 45.8 190.922 46.76C189.282 47.68 187.942 49 186.902 50.72C185.902 52.4 185.402 54.34 185.402 56.54V83H167.102V0.439997H185.402V41C185.842 39.68 186.822 38.36 188.342 37.04C189.902 35.68 191.842 34.56 194.162 33.68C196.522 32.76 199.062 32.3 201.782 32.3ZM234.327 3.8H261.507C266.027 3.8 270.207 4.42 274.047 5.66C277.927 6.9 281.047 8.94 283.407 11.78C285.807 14.58 287.007 18.38 287.007 23.18C287.007 26.34 286.407 29.16 285.207 31.64C284.047 34.12 282.487 36.16 280.527 37.76C278.607 39.32 276.507 40.36 274.227 40.88C276.227 41.12 278.167 41.7 280.047 42.62C281.967 43.5 283.687 44.74 285.207 46.34C286.767 47.9 287.987 49.86 288.867 52.22C289.787 54.54 290.247 57.3 290.247 60.5C290.247 64.94 289.247 68.86 287.247 72.26C285.287 75.62 282.407 78.26 278.607 80.18C274.847 82.06 270.227 83 264.747 83H234.327V3.8ZM252.267 68.66H260.427C262.987 68.66 265.067 68.28 266.667 67.52C268.307 66.72 269.507 65.6 270.267 64.16C271.027 62.68 271.407 60.92 271.407 58.88C271.407 55.68 270.407 53.34 268.407 51.86C266.447 50.34 263.687 49.58 260.127 49.58H252.267V68.66ZM252.267 35.54H259.527C261.647 35.54 263.407 35.16 264.807 34.4C266.247 33.64 267.327 32.58 268.047 31.22C268.807 29.82 269.187 28.22 269.187 26.42C269.187 23.18 268.267 21 266.427 19.88C264.587 18.72 262.067 18.14 258.867 18.14H252.267V35.54ZM301.538 83V33.74H319.778V83H301.538ZM310.898 23.6C308.018 23.6 305.578 22.6 303.578 20.6C301.578 18.56 300.578 16.14 300.578 13.34C300.578 10.54 301.578 8.12 303.578 6.08C305.618 3.99999 308.058 2.95999 310.898 2.95999C312.778 2.95999 314.498 3.43999 316.058 4.4C317.618 5.32 318.878 6.56 319.838 8.12C320.798 9.68 321.278 11.42 321.278 13.34C321.278 16.14 320.258 18.56 318.218 20.6C316.178 22.6 313.738 23.6 310.898 23.6ZM332.045 83V0.439997H350.285V40.94C350.645 39.82 351.565 38.6 353.045 37.28C354.565 35.92 356.545 34.76 358.985 33.8C361.465 32.8 364.265 32.3 367.385 32.3C372.185 32.3 376.345 33.48 379.865 35.84C383.385 38.2 386.105 41.36 388.025 45.32C389.945 49.24 390.905 53.6 390.905 58.4C390.905 63.2 389.945 67.58 388.025 71.54C386.105 75.46 383.385 78.6 379.865 80.96C376.345 83.28 372.185 84.44 367.385 84.44C364.745 84.44 362.245 83.96 359.885 83C357.565 82.08 355.545 80.9 353.825 79.46C352.145 77.98 350.905 76.5 350.105 75.02V83H332.045ZM373.025 58.4C373.025 56.16 372.525 54.16 371.525 52.4C370.565 50.6 369.225 49.2 367.505 48.2C365.825 47.16 363.925 46.64 361.805 46.64C359.605 46.64 357.625 47.16 355.865 48.2C354.145 49.2 352.785 50.6 351.785 52.4C350.785 54.16 350.285 56.16 350.285 58.4C350.285 60.64 350.785 62.66 351.785 64.46C352.785 66.22 354.145 67.6 355.865 68.6C357.625 69.6 359.605 70.1 361.805 70.1C363.925 70.1 365.825 69.6 367.505 68.6C369.225 67.6 370.565 66.22 371.525 64.46C372.525 62.66 373.025 60.64 373.025 58.4ZM417.616 83H399.316V0.439997H417.616V83ZM443.896 62.24C444.016 64 444.576 65.56 445.576 66.92C446.576 68.28 447.956 69.36 449.716 70.16C451.516 70.92 453.636 71.3 456.076 71.3C458.396 71.3 460.476 71.06 462.316 70.58C464.196 70.1 465.816 69.5 467.176 68.78C468.576 68.06 469.656 67.32 470.416 66.56L477.496 77.84C476.496 78.92 475.076 79.98 473.236 81.02C471.436 82.02 469.056 82.84 466.096 83.48C463.136 84.12 459.396 84.44 454.876 84.44C449.436 84.44 444.596 83.42 440.356 81.38C436.116 79.34 432.776 76.34 430.336 72.38C427.896 68.42 426.676 63.58 426.676 57.86C426.676 53.06 427.716 48.74 429.796 44.9C431.916 41.02 434.976 37.96 438.976 35.72C442.976 33.44 447.796 32.3 453.436 32.3C458.796 32.3 463.436 33.28 467.356 35.24C471.316 37.2 474.356 40.12 476.476 44C478.636 47.84 479.716 52.64 479.716 58.4C479.716 58.72 479.696 59.36 479.656 60.32C479.656 61.28 479.616 61.92 479.536 62.24H443.896ZM462.556 52.7C462.516 51.42 462.176 50.16 461.536 48.92C460.896 47.64 459.936 46.6 458.656 45.8C457.376 44.96 455.736 44.54 453.736 44.54C451.736 44.54 450.036 44.94 448.636 45.74C447.276 46.5 446.236 47.5 445.516 48.74C444.796 49.98 444.396 51.3 444.316 52.7H462.556Z" fill="white"/>
<path d="M501.382 84.44C498.422 84.44 495.862 83.38 493.702 81.26C491.582 79.1 490.522 76.54 490.522 73.58C490.522 70.54 491.582 67.96 493.702 65.84C495.862 63.68 498.422 62.6 501.382 62.6C504.422 62.6 507.002 63.68 509.122 65.84C511.242 67.96 512.302 70.54 512.302 73.58C512.302 76.54 511.242 79.1 509.122 81.26C507.002 83.38 504.422 84.44 501.382 84.44Z" fill="#DD5434"/>
</svg>